<svg xmlns="http://www.w3.org/2000/svg" viewBox="0 0 730 252" aria-labelledby="title"><title>Vectors and Paths: An SVG Example</title><style>.st0{fill:none;stroke:#FFFFFF;stroke-miterlimit:10;} .st1{fill:#6D82AB;} .st2{fill:#ECF3EC;} .st3{fill:#FFFFFF;}</style><g id="back-wires"><path class="st0" d="M4 125.7C106.5 106.5 176.7 71.1 183.5 4.1 304.4 52.5 425.1 52.6 545.7 4c6.8 66.7 76.6 102.1 180.1 120.5-135.2 21.9-231.9 60.1-271.1 122.6-60-25-120.2-24.9-180.6-.5C224 175.6 124 143 4 125.7zM4 125.7C155.1 106.3 282.8 70.9 365.2 4.4M365.2 4.4c-19.8 103.5-44 197.4-91.1 242.2M365.2 4.4c20.7 109.3 46.4 203.3 89.5 242.7M365.2 5.5C440.8 69.4 567.5 106 725.8 125.7"/></g><g id="logo-text-shadow"><path class="st1" d="M119.9 153.9l-16.8-45.5h15.6l9.8 30.6 9.8-30.6H154l-16.8 45.5h-17.3zM149.8 137.4c0-9.6 7.3-17.3 18-17.3 9.7 0 17.1 7 17.1 18.6v2.5h-22.4c.7 2.1 3.1 4.2 7.1 4.2 1.8 0 5.9-.9 7.6-2.3l5.1 7.6c-3.3 2.8-9.1 4.1-14.1 4.1-10.3 0-18.4-6.5-18.4-17.4zm18-7.9c-3.8 0-5 2.5-5.4 4h10.9c-.4-1.5-1.6-4-5.5-4zM186.9 137.4c0-10.4 8.1-17.3 18.5-17.3 7.5 0 12.1 3.4 14 6.2l-7.9 7.4c-1-1.6-2.9-2.8-5.5-2.8-3.5 0-6.5 2.2-6.5 6.4s3 6.5 6.5 6.5c2.6 0 4.5-1.4 5.5-2.9l7.9 7.5c-1.8 2.7-6.5 6.2-14 6.2-10.5.2-18.5-6.7-18.5-17.2zM225.9 144.4v-12.8h-5.5V121h5.5v-9h12.3v9h6.7v10.6h-6.7v9.2c0 1.7 1.1 3.1 2.7 3.1 1.1 0 2.2-.3 2.5-.6l2.2 9.3c-1.3 1.2-4.2 2.2-8.3 2.2-7.4 0-11.4-3.5-11.4-10.4zM247.2 137.4c0-9.2 6.8-17.3 18.5-17.3s18.6 8.1 18.6 17.3c0 9.2-6.8 17.3-18.6 17.3-11.7.1-18.5-8.1-18.5-17.3zm24.4 0c0-3.6-2.1-6.4-5.9-6.4-3.8 0-5.9 2.8-5.9 6.4 0 3.7 2.1 6.5 5.9 6.5 3.8 0 5.9-2.8 5.9-6.5zM288.8 153.9v-33h12.3v3.6c2-2.4 6.3-4.6 10.1-4.6v11.7c-.6-.2-1.6-.3-2.8-.3-2.6 0-5.9.7-7.3 2.3v20.2h-12.3zM312.7 149.7l4.9-8.3c2.6 2 8.2 4.2 11.9 4.2 2.5 0 3.3-.6 3.3-1.4 0-1-2-1.3-4.6-1.6-5.5-.8-14.1-1.9-14.1-11.1 0-5.9 5.2-11.3 14.7-11.3 5.5 0 10.4 1.7 14.3 4.2l-4.5 8c-2-1.7-5.9-3.4-9.7-3.4-1.8 0-3.1.6-3.1 1.4 0 .9 1 1 4.2 1.5 5.5.8 14.5 2.1 14.5 11.6 0 6.6-5.9 11.3-15.6 11.3-6.1 0-12.7-2.2-16.2-5.1zM393.4 150c-4.6 3.5-9.6 5.3-14.7 5.3-3.5 0-6.4-1-8.6-3.1-2.2-2.1-3.3-4.8-3.3-8.2 0-6.5 4.6-11.8 13.8-16.1-1.4-3.6-2.1-6.5-2.1-8.7 0-3.3 1.1-6 3.4-8.2 2.3-2.2 5.1-3.3 8.5-3.3 5 0 7.5 2.2 7.5 6.6 0 4.1-4 8.3-12 12.7.2.5.4.9.4 1l.9 1.8c.8 1.6 1.3 2.7 1.7 3.3 3.4-3.5 8.5-5.3 15.6-5.3h7c3.9 0 6.7-.5 8.4-1.4 1.7-1 2.5-2.6 2.5-4.9 0-1.3-.7-2.7-2-4l3.7-3.7c.9 1.2 1.4 2.8 1.4 4.7 0 4.2-1.8 7.6-5.4 10.1-3.6 2.5-8.4 3.8-14.4 3.8h-.7c-1.1 5.2-3.8 9.9-8 14.1 2.2 3.1 4.3 4.7 6.2 4.7 1.5 0 3.1-1.2 4.8-3.5.4.3.5.7.5 1.1 0 1.2-.9 2.5-2.8 4s-3.6 2.3-5 2.3c-2 .2-4.5-1.6-7.3-5.1zm-.9-1.2l-.8-1.1c-3.6-5.1-6.8-10.9-9.7-17.3l-.6-1.3c-5.8 2.8-8.7 7-8.7 12.7 0 3.1 1 5.6 3 7.5 2 2 4.6 3 7.7 3 3 0 6.1-1.1 9.1-3.5zm-7.2-22.9c5.2-3.1 7.8-6.6 7.8-10.5 0-1.5-.5-2.9-1.6-4s-2.3-1.7-3.8-1.7c-3.4 0-5.1 2.1-5.1 6.3.1 2.4 1 5.6 2.7 9.9zm10.8 19.5c3-4.3 4.6-8.6 5-12.9h-1c-4.8 0-8.3.6-10.6 1.8.4.7.6 1.2.7 1.3l2.3 3.9c1.6 2.9 2.8 4.8 3.6 5.9zM444.4 153.9v-45.5h24.3c10.6 0 16.4 7.1 16.4 15.6s-5.7 15.6-16.4 15.6h-10.5v14.3h-13.8zM471 124c0-2.5-1.8-3.6-4.2-3.6h-8.7v7.2h8.7c2.4 0 4.2-1.2 4.2-3.6zM506.9 153.9v-3.1c-1.8 2.3-5.9 4-10 4-4.9 0-11.3-3.3-11.3-10.9 0-8.2 6.4-10.5 11.3-10.5 4.3 0 8.2 1.4 10 3.6v-3.4c0-2.3-2.1-4.1-6.1-4.1-3.1 0-6.6 1.2-9.1 3.2l-4.2-7.6c4.4-3.5 10.6-5 15.6-5 8.2 0 16.2 2.9 16.2 13.9v19.9h-12.4zm0-8.9v-1.8c-.8-1.2-2.9-1.8-4.8-1.8-2 0-4.3.7-4.3 2.7s2.3 2.7 4.3 2.7c1.9 0 4-.6 4.8-1.8zM528.6 144.4v-12.8h-5.5V121h5.5v-9h12.3v9h6.7v10.6h-6.7v9.2c0 1.7 1.1 3.1 2.7 3.1 1.1 0 2.2-.3 2.5-.6l2.2 9.3c-1.3 1.2-4.2 2.2-8.3 2.2-7.4 0-11.4-3.5-11.4-10.4zM574.5 153.9v-18.4c0-3.4-1.8-4.6-4.8-4.6-2.8 0-4.2 1.4-5.3 2.6v20.3h-12.3v-45.5h12.3v16.3c1.9-2.2 5.5-4.6 11.3-4.6 7.6 0 11 4.5 11 10.2v23.5h-12.2zM590.8 149.7l4.9-8.3c2.6 2 8.2 4.2 11.9 4.2 2.5 0 3.3-.6 3.3-1.4 0-1-2-1.3-4.6-1.6-5.5-.8-14.1-1.9-14.1-11.1 0-5.9 5.2-11.3 14.7-11.3 5.5 0 10.4 1.7 14.3 4.2l-4.5 8c-2-1.7-5.9-3.4-9.7-3.4-1.8 0-3.1.6-3.1 1.4 0 .9 1 1 4.2 1.5 5.5.8 14.5 2.1 14.5 11.6 0 6.6-5.9 11.3-15.6 11.3-6.1 0-12.6-2.2-16.2-5.1z"/></g><g id="logo-text"><path class="st2" d="M109.3 143.4L92.5 97.8h15.6l9.8 30.6 9.8-30.6h15.6l-16.8 45.5h-17.2zM139.3 126.8c0-9.6 7.3-17.3 18-17.3 9.7 0 17.1 7 17.1 18.6v2.5H152c.7 2.1 3.1 4.2 7.1 4.2 1.8 0 5.9-.9 7.6-2.3l5.1 7.6c-3.3 2.8-9.1 4.1-14.1 4.1-10.4 0-18.4-6.5-18.4-17.4zm17.9-7.9c-3.8 0-5 2.5-5.4 4h10.9c-.4-1.4-1.5-4-5.5-4zM176.3 126.8c0-10.4 8.1-17.3 18.5-17.3 7.5 0 12.1 3.4 14 6.2l-7.9 7.4c-1-1.6-2.9-2.8-5.5-2.8-3.5 0-6.5 2.2-6.5 6.4s3 6.5 6.5 6.5c2.6 0 4.5-1.4 5.5-2.9l7.9 7.5c-1.8 2.7-6.5 6.2-14 6.2-10.4.2-18.5-6.6-18.5-17.2zM215.4 133.8V121h-5.5v-10.6h5.5v-9h12.3v9h6.7V121h-6.7v9.2c0 1.7 1.1 3.1 2.7 3.1 1.1 0 2.2-.3 2.5-.6l2.2 9.3c-1.3 1.2-4.2 2.2-8.3 2.2-7.4 0-11.4-3.5-11.4-10.4zM236.6 126.8c0-9.2 6.8-17.3 18.5-17.3s18.6 8.1 18.6 17.3c0 9.2-6.8 17.3-18.6 17.3-11.6.1-18.5-8-18.5-17.3zm24.5 0c0-3.6-2.1-6.4-5.9-6.4-3.8 0-5.9 2.8-5.9 6.4 0 3.7 2.1 6.5 5.9 6.5 3.8 0 5.9-2.8 5.9-6.5zM278.3 143.4v-33h12.3v3.6c2-2.4 6.3-4.6 10.1-4.6v11.7c-.6-.2-1.6-.3-2.8-.3-2.6 0-5.9.7-7.3 2.3v20.2h-12.3zM302.1 139.1l4.9-8.3c2.6 2 8.2 4.2 11.9 4.2 2.5 0 3.3-.6 3.3-1.4 0-1-2-1.3-4.6-1.6-5.5-.8-14.1-1.9-14.1-11.1 0-5.9 5.2-11.3 14.7-11.3 5.5 0 10.4 1.7 14.3 4.2l-4.5 8c-2-1.7-5.9-3.4-9.7-3.4-1.8 0-3.1.6-3.1 1.4 0 .9 1 1 4.2 1.5 5.5.8 14.5 2.1 14.5 11.6 0 6.6-5.9 11.3-15.6 11.3-6.1 0-12.7-2.1-16.2-5.1zM382.8 139.4c-4.6 3.5-9.6 5.3-14.7 5.3-3.5 0-6.4-1-8.6-3.1-2.2-2.1-3.3-4.8-3.3-8.2 0-6.5 4.6-11.8 13.8-16.1-1.4-3.6-2.1-6.5-2.1-8.7 0-3.3 1.1-6 3.4-8.2 2.3-2.2 5.1-3.3 8.5-3.3 5 0 7.5 2.2 7.5 6.6 0 4.1-4 8.3-12 12.7.2.5.4.9.4 1l.9 1.8c.8 1.6 1.3 2.7 1.7 3.3 3.4-3.5 8.5-5.3 15.6-5.3h7c3.9 0 6.7-.5 8.4-1.4 1.7-1 2.5-2.6 2.5-4.9 0-1.3-.7-2.7-2-4l3.7-3.7c.9 1.2 1.4 2.8 1.4 4.7 0 4.2-1.8 7.6-5.4 10.1-3.6 2.5-8.4 3.8-14.4 3.8h-.6c-1.1 5.2-3.8 9.9-8 14.1 2.2 3.1 4.3 4.7 6.2 4.7 1.5 0 3.1-1.2 4.8-3.5.4.3.5.7.5 1.1 0 1.2-.9 2.5-2.8 4s-3.6 2.3-5 2.3c-2.1.2-4.5-1.6-7.4-5.1zm-.9-1.1l-.8-1.1c-3.6-5.1-6.8-10.9-9.7-17.3l-.6-1.3c-5.8 2.8-8.7 7-8.7 12.7 0 3.1 1 5.6 3 7.5 2 2 4.6 3 7.7 3 3.1 0 6.1-1.2 9.1-3.5zm-7.2-23c5.2-3.1 7.8-6.6 7.8-10.5 0-1.5-.5-2.9-1.6-4s-2.3-1.7-3.8-1.7c-3.4 0-5.1 2.1-5.1 6.3.1 2.4 1 5.7 2.7 9.9zm10.8 19.5c3-4.3 4.6-8.6 5-12.9h-1c-4.8 0-8.3.6-10.6 1.8.4.7.6 1.2.7 1.3l2.3 3.9c1.6 2.9 2.9 4.9 3.6 5.9zM433.8 143.4V97.8h24.3c10.6 0 16.4 7.1 16.4 15.6s-5.7 15.6-16.4 15.6h-10.5v14.3h-13.8zm26.7-29.9c0-2.5-1.8-3.6-4.2-3.6h-8.7v7.2h8.7c2.3-.1 4.2-1.2 4.2-3.6zM496.4 143.4v-3.1c-1.8 2.3-5.9 4-10 4-4.9 0-11.3-3.3-11.3-10.9 0-8.2 6.4-10.5 11.3-10.5 4.3 0 8.2 1.4 10 3.6V123c0-2.3-2.1-4.1-6.1-4.1-3.1 0-6.6 1.2-9.1 3.2l-4.2-7.6c4.4-3.5 10.6-5 15.6-5 8.2 0 16.2 2.9 16.2 13.9v19.9h-12.4zm0-9v-1.8c-.8-1.2-2.9-1.8-4.8-1.8-2 0-4.3.7-4.3 2.7s2.3 2.7 4.3 2.7c1.8 0 4-.6 4.8-1.8zM518 133.8V121h-5.5v-10.6h5.5v-9h12.3v9h6.7V121h-6.7v9.2c0 1.7 1.1 3.1 2.7 3.1 1.1 0 2.2-.3 2.5-.6l2.2 9.3c-1.3 1.2-4.2 2.2-8.3 2.2-7.4 0-11.4-3.5-11.4-10.4zM563.9 143.4V125c0-3.4-1.8-4.6-4.8-4.6-2.8 0-4.2 1.4-5.3 2.6v20.3h-12.3V97.8h12.3v16.3c1.9-2.2 5.5-4.6 11.3-4.6 7.6 0 11 4.5 11 10.2v23.5h-12.2zM580.2 139.1l4.9-8.3c2.6 2 8.2 4.2 11.9 4.2 2.5 0 3.3-.6 3.3-1.4 0-1-2-1.3-4.6-1.6-5.5-.8-14.1-1.9-14.1-11.1 0-5.9 5.2-11.3 14.7-11.3 5.5 0 10.4 1.7 14.3 4.2l-4.5 8c-2-1.7-5.9-3.4-9.7-3.4-1.8 0-3.1.6-3.1 1.4 0 .9 1 1 4.2 1.5 5.5.8 14.5 2.1 14.5 11.6 0 6.6-5.9 11.3-15.6 11.3-6.1 0-12.6-2.1-16.2-5.1z"/></g><g id="logo-front-wires"><path class="st0" d="M4 126L184.7 4.4M184.7 4.4L275 247.3M275 247.3L365.2 4.4M365.2 4.4l90.2 242.9M455.4 247.3L545.6 4.4M545.6 4.4l180.5 121.4M726.1 125.8L455.4 247.3M455.5 247.5h-181M274.7 246.9L4 126"/></g><g id="logo-dots"><circle class="st3" cx="4.3" cy="125.8" r="3.9"/><circle class="st3" cx="726.1" cy="125.8" r="3.9"/><circle class="st3" cx="275" cy="247.3" r="3.9"/><circle class="st3" cx="455.4" cy="247.3" r="3.9"/><circle class="st3" cx="365.2" cy="4.4" r="3.9"/><circle class="st3" cx="545.6" cy="4.4" r="3.9"/><circle class="st3" cx="184.7" cy="4.4" r="3.9"/></g></svg>
