<?xml version="1.0" encoding="utf-8"?>
<!-- Generator: Adobe Illustrator 19.1.0, SVG Export Plug-In . SVG Version: 6.00 Build 0)  -->
<svg version="1.1" xmlns="http://www.w3.org/2000/svg" xmlns:xlink="http://www.w3.org/1999/xlink" x="0px" y="0px"
	 viewBox="0 0 730 252" style="enable-background:new 0 0 730 252;" xml:space="preserve">
<style type="text/css">
	.st0{fill:none;stroke:#FFFFFF;stroke-miterlimit:10;}
	.st1{fill:#6D82AB;}
	.st2{fill:#ECF3EC;}
	.st3{fill:#FFFFFF;}
</style>
<g id="back-wires">
	<path class="st0" d="M4,125.7C106.5,106.5,176.7,71.1,183.5,4.1C304.4,52.5,425.1,52.6,545.7,4c6.8,66.7,76.6,102.1,180.1,120.5
		c-135.2,21.9-231.9,60.1-271.1,122.6c-60-25-120.2-24.9-180.6-0.5C224,175.6,124,143,4,125.7z"/>
	<path class="st0" d="M4,125.7C155.1,106.3,282.8,70.9,365.2,4.4"/>
	<path class="st0" d="M365.2,4.4c-19.8,103.5-44,197.4-91.1,242.2"/>
	<path class="st0" d="M365.2,4.4c20.7,109.3,46.4,203.3,89.5,242.7"/>
	<path class="st0" d="M365.2,5.5C440.8,69.4,567.5,106,725.8,125.7"/>
</g>
<g id="logo-text-shadow">
	<g>
		<path class="st1" d="M119.9,153.9l-16.8-45.5h15.6l9.8,30.6l9.8-30.6H154l-16.8,45.5H119.9z"/>
		<path class="st1" d="M149.8,137.4c0-9.6,7.3-17.3,18-17.3c9.7,0,17.1,7,17.1,18.6v2.5h-22.4c0.7,2.1,3.1,4.2,7.1,4.2
			c1.8,0,5.9-0.9,7.6-2.3l5.1,7.6c-3.3,2.8-9.1,4.1-14.1,4.1C157.9,154.8,149.8,148.3,149.8,137.4z M167.8,129.5c-3.8,0-5,2.5-5.4,4
			h10.9C172.9,132,171.7,129.5,167.8,129.5z"/>
		<path class="st1" d="M186.9,137.4c0-10.4,8.1-17.3,18.5-17.3c7.5,0,12.1,3.4,14,6.2l-7.9,7.4c-1-1.6-2.9-2.8-5.5-2.8
			c-3.5,0-6.5,2.2-6.5,6.4c0,4.2,3,6.5,6.5,6.5c2.6,0,4.5-1.4,5.5-2.9l7.9,7.5c-1.8,2.7-6.5,6.2-14,6.2
			C194.9,154.8,186.9,147.9,186.9,137.4z"/>
		<path class="st1" d="M225.9,144.4v-12.8h-5.5V121h5.5v-9h12.3v9h6.7v10.6h-6.7v9.2c0,1.7,1.1,3.1,2.7,3.1c1.1,0,2.2-0.3,2.5-0.6
			l2.2,9.3c-1.3,1.2-4.2,2.2-8.3,2.2C229.9,154.8,225.9,151.3,225.9,144.4z"/>
		<path class="st1" d="M247.2,137.4c0-9.2,6.8-17.3,18.5-17.3c11.7,0,18.6,8.1,18.6,17.3c0,9.2-6.8,17.3-18.6,17.3
			C254,154.8,247.2,146.6,247.2,137.4z M271.6,137.4c0-3.6-2.1-6.4-5.9-6.4c-3.8,0-5.9,2.8-5.9,6.4c0,3.7,2.1,6.5,5.9,6.5
			C269.5,143.9,271.6,141.1,271.6,137.4z"/>
		<path class="st1" d="M288.8,153.9v-33h12.3v3.6c2-2.4,6.3-4.6,10.1-4.6v11.7c-0.6-0.2-1.6-0.3-2.8-0.3c-2.6,0-5.9,0.7-7.3,2.3
			v20.2H288.8z"/>
		<path class="st1" d="M312.7,149.7l4.9-8.3c2.6,2,8.2,4.2,11.9,4.2c2.5,0,3.3-0.6,3.3-1.4c0-1-2-1.3-4.6-1.6
			c-5.5-0.8-14.1-1.9-14.1-11.1c0-5.9,5.2-11.3,14.7-11.3c5.5,0,10.4,1.7,14.3,4.2l-4.5,8c-2-1.7-5.9-3.4-9.7-3.4
			c-1.8,0-3.1,0.6-3.1,1.4c0,0.9,1,1,4.2,1.5c5.5,0.8,14.5,2.1,14.5,11.6c0,6.6-5.9,11.3-15.6,11.3
			C322.8,154.8,316.2,152.6,312.7,149.7z"/>
		<path class="st1" d="M393.4,150c-4.6,3.5-9.6,5.3-14.7,5.3c-3.5,0-6.4-1-8.6-3.1c-2.2-2.1-3.3-4.8-3.3-8.2
			c0-6.5,4.6-11.8,13.8-16.1c-1.4-3.6-2.1-6.5-2.1-8.7c0-3.3,1.1-6,3.4-8.2c2.3-2.2,5.1-3.3,8.5-3.3c5,0,7.5,2.2,7.5,6.6
			c0,4.1-4,8.3-12,12.7c0.2,0.5,0.4,0.9,0.4,1l0.9,1.8c0.8,1.6,1.3,2.7,1.7,3.3c3.4-3.5,8.5-5.3,15.6-5.3h4.6l2.4,0
			c3.9,0,6.7-0.5,8.4-1.4c1.7-1,2.5-2.6,2.5-4.9c0-1.3-0.7-2.7-2-4l3.7-3.7c0.9,1.2,1.4,2.8,1.4,4.7c0,4.2-1.8,7.6-5.4,10.1
			c-3.6,2.5-8.4,3.8-14.4,3.8H405c-1.1,5.2-3.8,9.9-8,14.1c2.2,3.1,4.3,4.7,6.2,4.7c1.5,0,3.1-1.2,4.8-3.5c0.4,0.3,0.5,0.7,0.5,1.1
			c0,1.2-0.9,2.5-2.8,4c-1.9,1.5-3.6,2.3-5,2.3C398.7,155.3,396.2,153.5,393.4,150z M392.5,148.8l-0.8-1.1
			c-3.6-5.1-6.8-10.9-9.7-17.3l-0.6-1.3c-5.8,2.8-8.7,7-8.7,12.7c0,3.1,1,5.6,3,7.5c2,2,4.6,3,7.7,3
			C386.4,152.3,389.5,151.2,392.5,148.8z M385.3,125.9c5.2-3.1,7.8-6.6,7.8-10.5c0-1.5-0.5-2.9-1.6-4s-2.3-1.7-3.8-1.7
			c-3.4,0-5.1,2.1-5.1,6.3C382.7,118.4,383.6,121.6,385.3,125.9z M396.1,145.4c3-4.3,4.6-8.6,5-12.9h-1c-4.8,0-8.3,0.6-10.6,1.8
			c0.4,0.7,0.6,1.2,0.7,1.3l2.3,3.9C394.1,142.4,395.3,144.3,396.1,145.4z"/>
		<path class="st1" d="M444.4,153.9v-45.5h24.3c10.6,0,16.4,7.1,16.4,15.6c0,8.5-5.7,15.6-16.4,15.6h-10.5v14.3H444.4z M471,124
			c0-2.5-1.8-3.6-4.2-3.6h-8.7v7.2h8.7C469.2,127.6,471,126.4,471,124z"/>
		<path class="st1" d="M506.9,153.9v-3.1c-1.8,2.3-5.9,4-10,4c-4.9,0-11.3-3.3-11.3-10.9c0-8.2,6.4-10.5,11.3-10.5
			c4.3,0,8.2,1.4,10,3.6v-3.4c0-2.3-2.1-4.1-6.1-4.1c-3.1,0-6.6,1.2-9.1,3.2l-4.2-7.6c4.4-3.5,10.6-5,15.6-5
			c8.2,0,16.2,2.9,16.2,13.9v19.9H506.9z M506.9,145v-1.8c-0.8-1.2-2.9-1.8-4.8-1.8c-2,0-4.3,0.7-4.3,2.7c0,2,2.3,2.7,4.3,2.7
			C504,146.8,506.1,146.2,506.9,145z"/>
		<path class="st1" d="M528.6,144.4v-12.8h-5.5V121h5.5v-9h12.3v9h6.7v10.6h-6.7v9.2c0,1.7,1.1,3.1,2.7,3.1c1.1,0,2.2-0.3,2.5-0.6
			l2.2,9.3c-1.3,1.2-4.2,2.2-8.3,2.2C532.6,154.8,528.6,151.3,528.6,144.4z"/>
		<path class="st1" d="M574.5,153.9v-18.4c0-3.4-1.8-4.6-4.8-4.6c-2.8,0-4.2,1.4-5.3,2.6v20.3h-12.3v-45.5h12.3v16.3
			c1.9-2.2,5.5-4.6,11.3-4.6c7.6,0,11,4.5,11,10.2v23.5H574.5z"/>
		<path class="st1" d="M590.8,149.7l4.9-8.3c2.6,2,8.2,4.2,11.9,4.2c2.5,0,3.3-0.6,3.3-1.4c0-1-2-1.3-4.6-1.6
			c-5.5-0.8-14.1-1.9-14.1-11.1c0-5.9,5.2-11.3,14.7-11.3c5.5,0,10.4,1.7,14.3,4.2l-4.5,8c-2-1.7-5.9-3.4-9.7-3.4
			c-1.8,0-3.1,0.6-3.1,1.4c0,0.9,1,1,4.2,1.5c5.5,0.8,14.5,2.1,14.5,11.6c0,6.6-5.9,11.3-15.6,11.3
			C600.9,154.8,594.4,152.6,590.8,149.7z"/>
	</g>
</g>
<g id="logo-text">
	<g>
		<path class="st2" d="M109.3,143.4L92.5,97.8h15.6l9.8,30.6l9.8-30.6h15.6l-16.8,45.5H109.3z"/>
		<path class="st2" d="M139.3,126.8c0-9.6,7.3-17.3,18-17.3c9.7,0,17.1,7,17.1,18.6v2.5H152c0.7,2.1,3.1,4.2,7.1,4.2
			c1.8,0,5.9-0.9,7.6-2.3l5.1,7.6c-3.3,2.8-9.1,4.1-14.1,4.1C147.3,144.2,139.3,137.7,139.3,126.8z M157.2,118.9c-3.8,0-5,2.5-5.4,4
			h10.9C162.3,121.5,161.2,118.9,157.2,118.9z"/>
		<path class="st2" d="M176.3,126.8c0-10.4,8.1-17.3,18.5-17.3c7.5,0,12.1,3.4,14,6.2l-7.9,7.4c-1-1.6-2.9-2.8-5.5-2.8
			c-3.5,0-6.5,2.2-6.5,6.4c0,4.2,3,6.5,6.5,6.5c2.6,0,4.5-1.4,5.5-2.9l7.9,7.5c-1.8,2.7-6.5,6.2-14,6.2
			C184.4,144.2,176.3,137.4,176.3,126.8z"/>
		<path class="st2" d="M215.4,133.8V121h-5.5v-10.6h5.5v-9h12.3v9h6.7V121h-6.7v9.2c0,1.7,1.1,3.1,2.7,3.1c1.1,0,2.2-0.3,2.5-0.6
			l2.2,9.3c-1.3,1.2-4.2,2.2-8.3,2.2C219.4,144.2,215.4,140.7,215.4,133.8z"/>
		<path class="st2" d="M236.6,126.8c0-9.2,6.8-17.3,18.5-17.3c11.7,0,18.6,8.1,18.6,17.3c0,9.2-6.8,17.3-18.6,17.3
			C243.5,144.2,236.6,136.1,236.6,126.8z M261.1,126.8c0-3.6-2.1-6.4-5.9-6.4c-3.8,0-5.9,2.8-5.9,6.4c0,3.7,2.1,6.5,5.9,6.5
			C259,133.3,261.1,130.5,261.1,126.8z"/>
		<path class="st2" d="M278.3,143.4v-33h12.3v3.6c2-2.4,6.3-4.6,10.1-4.6v11.7c-0.6-0.2-1.6-0.3-2.8-0.3c-2.6,0-5.9,0.7-7.3,2.3
			v20.2H278.3z"/>
		<path class="st2" d="M302.1,139.1l4.9-8.3c2.6,2,8.2,4.2,11.9,4.2c2.5,0,3.3-0.6,3.3-1.4c0-1-2-1.3-4.6-1.6
			c-5.5-0.8-14.1-1.9-14.1-11.1c0-5.9,5.2-11.3,14.7-11.3c5.5,0,10.4,1.7,14.3,4.2l-4.5,8c-2-1.7-5.9-3.4-9.7-3.4
			c-1.8,0-3.1,0.6-3.1,1.4c0,0.9,1,1,4.2,1.5c5.5,0.8,14.5,2.1,14.5,11.6c0,6.6-5.9,11.3-15.6,11.3
			C312.2,144.2,305.6,142.1,302.1,139.1z"/>
		<path class="st2" d="M382.8,139.4c-4.6,3.5-9.6,5.3-14.7,5.3c-3.5,0-6.4-1-8.6-3.1c-2.2-2.1-3.3-4.8-3.3-8.2
			c0-6.5,4.6-11.8,13.8-16.1c-1.4-3.6-2.1-6.5-2.1-8.7c0-3.3,1.1-6,3.4-8.2c2.3-2.2,5.1-3.3,8.5-3.3c5,0,7.5,2.2,7.5,6.6
			c0,4.1-4,8.3-12,12.7c0.2,0.5,0.4,0.9,0.4,1l0.9,1.8c0.8,1.6,1.3,2.7,1.7,3.3c3.4-3.5,8.5-5.3,15.6-5.3h4.6l2.4,0
			c3.9,0,6.7-0.5,8.4-1.4c1.7-1,2.5-2.6,2.5-4.9c0-1.3-0.7-2.7-2-4l3.7-3.7c0.9,1.2,1.4,2.8,1.4,4.7c0,4.2-1.8,7.6-5.4,10.1
			c-3.6,2.5-8.4,3.8-14.4,3.8h-0.6c-1.1,5.2-3.8,9.9-8,14.1c2.2,3.1,4.3,4.7,6.2,4.7c1.5,0,3.1-1.2,4.8-3.5c0.4,0.3,0.5,0.7,0.5,1.1
			c0,1.2-0.9,2.5-2.8,4c-1.9,1.5-3.6,2.3-5,2.3C388.1,144.7,385.7,142.9,382.8,139.4z M381.9,138.3l-0.8-1.1
			c-3.6-5.1-6.8-10.9-9.7-17.3l-0.6-1.3c-5.8,2.8-8.7,7-8.7,12.7c0,3.1,1,5.6,3,7.5c2,2,4.6,3,7.7,3
			C375.9,141.8,378.9,140.6,381.9,138.3z M374.7,115.3c5.2-3.1,7.8-6.6,7.8-10.5c0-1.5-0.5-2.9-1.6-4s-2.3-1.7-3.8-1.7
			c-3.4,0-5.1,2.1-5.1,6.3C372.1,107.8,373,111.1,374.7,115.3z M385.5,134.8c3-4.3,4.6-8.6,5-12.9h-1c-4.8,0-8.3,0.6-10.6,1.8
			c0.4,0.7,0.6,1.2,0.7,1.3l2.3,3.9C383.5,131.8,384.8,133.8,385.5,134.8z"/>
		<path class="st2" d="M433.8,143.4V97.8h24.3c10.6,0,16.4,7.1,16.4,15.6c0,8.5-5.7,15.6-16.4,15.6h-10.5v14.3H433.8z M460.5,113.5
			c0-2.5-1.8-3.6-4.2-3.6h-8.7v7.2h8.7C458.6,117,460.5,115.9,460.5,113.5z"/>
		<path class="st2" d="M496.4,143.4v-3.1c-1.8,2.3-5.9,4-10,4c-4.9,0-11.3-3.3-11.3-10.9c0-8.2,6.4-10.5,11.3-10.5
			c4.3,0,8.2,1.4,10,3.6V123c0-2.3-2.1-4.1-6.1-4.1c-3.1,0-6.6,1.2-9.1,3.2l-4.2-7.6c4.4-3.5,10.6-5,15.6-5
			c8.2,0,16.2,2.9,16.2,13.9v19.9H496.4z M496.4,134.4v-1.8c-0.8-1.2-2.9-1.8-4.8-1.8c-2,0-4.3,0.7-4.3,2.7c0,2,2.3,2.7,4.3,2.7
			C493.4,136.2,495.6,135.6,496.4,134.4z"/>
		<path class="st2" d="M518,133.8V121h-5.5v-10.6h5.5v-9h12.3v9h6.7V121h-6.7v9.2c0,1.7,1.1,3.1,2.7,3.1c1.1,0,2.2-0.3,2.5-0.6
			l2.2,9.3c-1.3,1.2-4.2,2.2-8.3,2.2C522,144.2,518,140.7,518,133.8z"/>
		<path class="st2" d="M563.9,143.4V125c0-3.4-1.8-4.6-4.8-4.6c-2.8,0-4.2,1.4-5.3,2.6v20.3h-12.3V97.8h12.3v16.3
			c1.9-2.2,5.5-4.6,11.3-4.6c7.6,0,11,4.5,11,10.2v23.5H563.9z"/>
		<path class="st2" d="M580.2,139.1l4.9-8.3c2.6,2,8.2,4.2,11.9,4.2c2.5,0,3.3-0.6,3.3-1.4c0-1-2-1.3-4.6-1.6
			c-5.5-0.8-14.1-1.9-14.1-11.1c0-5.9,5.2-11.3,14.7-11.3c5.5,0,10.4,1.7,14.3,4.2l-4.5,8c-2-1.7-5.9-3.4-9.7-3.4
			c-1.8,0-3.1,0.6-3.1,1.4c0,0.9,1,1,4.2,1.5c5.5,0.8,14.5,2.1,14.5,11.6c0,6.6-5.9,11.3-15.6,11.3
			C590.3,144.2,583.8,142.1,580.2,139.1z"/>
	</g>
</g>
<g id="logo-front-wires">
	<path class="st0" d="M4,126"/>
	<line class="st0" x1="4" y1="126" x2="184.7" y2="4.4"/>
	<line class="st0" x1="184.7" y1="4.4" x2="275" y2="247.3"/>
	<line class="st0" x1="275" y1="247.3" x2="365.2" y2="4.4"/>
	<line class="st0" x1="365.2" y1="4.4" x2="455.4" y2="247.3"/>
	<line class="st0" x1="455.4" y1="247.3" x2="545.6" y2="4.4"/>
	<line class="st0" x1="545.6" y1="4.4" x2="726.1" y2="125.8"/>
	<line class="st0" x1="726.1" y1="125.8" x2="455.4" y2="247.3"/>
	<line class="st0" x1="455.5" y1="247.5" x2="274.5" y2="247.5"/>
	<line class="st0" x1="274.7" y1="246.9" x2="4" y2="126"/>
</g>
<g id="logo-dots">
	<circle class="st3" cx="4.3" cy="125.8" r="3.9"/>
	<circle class="st3" cx="726.1" cy="125.8" r="3.9"/>
	<circle class="st3" cx="275" cy="247.3" r="3.9"/>
	<circle class="st3" cx="455.4" cy="247.3" r="3.9"/>
	<circle class="st3" cx="365.2" cy="4.4" r="3.9"/>
	<circle class="st3" cx="545.6" cy="4.4" r="3.9"/>
	<circle class="st3" cx="184.7" cy="4.4" r="3.9"/>
</g>
</svg>
